<svg width="100" height="100" viewBox="0 0 100 100" fill="none" xmlns="http://www.w3.org/2000/svg">
<rect width="100" height="100" fill="white"/>
<path d="M57.8993 39.3359C57.8993 35.0195 55.191 32.6367 50.434 32.6367H41.684V46.543H49.0625C54.7569 46.5234 57.8993 43.9453 57.8993 39.3359ZM89.7569 36.8359C88.1076 30.8008 87.8646 23.3984 88.0556 17.6758C88.2465 11.7188 84.1146 6.25 78.559 6.25H21.4757C15.9028 6.25 11.7882 11.7383 11.9792 17.6758C12.1528 23.3984 11.9271 30.8008 10.2778 36.8359C8.61111 42.8906 5.81597 46.7188 1.21528 47.207V52.7734C5.79861 53.2617 8.61111 57.0898 10.2778 63.1445C11.9271 69.1797 12.1701 76.582 11.9792 82.3047C11.7882 88.2617 15.9201 93.7305 21.4757 93.7305H78.5417C84.1146 93.7305 88.2292 88.2422 88.0382 82.3047C87.8646 76.582 88.0903 69.1797 89.7396 63.1445C91.4062 57.0898 94.2014 53.2617 98.7847 52.7734V47.207C94.2188 46.7188 91.4062 42.8906 89.7569 36.8359ZM52.1181 73.2617H35.1215V26.7188H52.0312C59.5486 26.7188 64.4792 31.2891 64.4792 38.3203C64.4792 43.2617 61.1632 47.6758 56.9271 48.4375V48.6914C62.691 49.3945 66.5625 53.8867 66.5625 60.0781C66.5625 68.3008 61.1285 73.2617 52.1181 73.2617ZM50.3819 52.0312H41.684V67.3437H50.7639C56.7014 67.3437 59.8438 64.668 59.8438 59.6289C59.8438 54.6094 56.6146 52.0312 50.3819 52.0312Z" fill="#563D7C"/>
</svg>
