<svg width="100" height="100" viewBox="0 0 100 100" fill="none" xmlns="http://www.w3.org/2000/svg">
<g clip-path="url(#clip0_59_1580)">
<path d="M98.125 46.1133L54.4643 7.91014C53.2551 6.85581 51.6177 6.26379 49.9107 6.26379C48.2037 6.26379 46.5663 6.85581 45.3571 7.91014L36.2723 15.8398L47.7679 25.8984C53.817 24.1211 59.5312 29.1797 57.4553 34.4336L68.5491 44.1406C76.183 41.8359 82.2098 50.1953 76.4732 55.2148C70.558 60.3906 60.8036 54.6484 63.9732 47.9297L53.6161 38.8672V62.6758C59.2634 65.1172 58.5937 70.8594 55.6473 73.418C54.936 74.0427 54.0907 74.5385 53.1599 74.8768C52.2291 75.215 51.2311 75.3892 50.2232 75.3892C49.2153 75.3892 48.2173 75.215 47.2865 74.8768C46.3557 74.5385 45.5104 74.0427 44.7991 73.418C40.8705 69.9805 42.3214 64.2578 47.3214 62.4804V38.457C42.6786 36.7969 41.8303 32.4609 43.1696 29.668L31.8304 19.7265L1.89732 45.918C0.692363 46.9759 0.0157776 48.4087 0.0157776 49.9023C0.0157776 51.396 0.692363 52.8287 1.89732 53.8867L45.558 92.0898C46.7672 93.1442 48.4046 93.7362 50.1116 93.7362C51.8186 93.7362 53.456 93.1442 54.6652 92.0898L98.125 54.0625C99.3299 53.0045 100.007 51.5717 100.007 50.0781C100.007 48.5845 99.3299 47.1517 98.125 46.0937V46.1133Z" fill="#FB4F28"/>
</g>
<defs>
<clipPath id="clip0_59_1580">
<rect width="100" height="100" fill="white"/>
</clipPath>
</defs>
</svg>
