<svg width="100" height="88" viewBox="0 0 100 88" fill="none" xmlns="http://www.w3.org/2000/svg">
<g clip-path="url(#clip0_59_1620)">
<rect width="100" height="87.5" fill="black"/>
<path d="M0 0V87.5H100V0H0ZM54.4196 68.2422C54.4196 76.7578 48.7054 80.6445 40.3795 80.6445C32.8571 80.6445 28.5045 77.2461 26.2723 73.125L33.9286 69.082C35.4018 71.3672 36.7411 73.3008 39.9777 73.3008C43.058 73.3008 45.0223 72.2461 45.0223 68.125V40.1758H54.4196V68.2422ZM76.6518 80.6445C67.9241 80.6445 62.2768 77.0117 59.5313 72.2461L67.1875 68.3789C69.1964 71.25 71.8304 73.3789 76.4509 73.3789C80.3348 73.3789 82.8348 71.6797 82.8348 69.3164C82.8348 66.5039 80.2902 65.5078 75.9821 63.8477L73.6384 62.9688C66.8527 60.4492 62.3661 57.2656 62.3661 50.5664C62.3661 44.3945 67.7455 39.707 76.1161 39.707C82.0982 39.707 86.3839 41.5234 89.4643 46.2891L82.1429 50.3906C80.5357 47.8711 78.7946 46.875 76.0938 46.875C73.3482 46.875 71.6071 48.3984 71.6071 50.3906C71.6071 52.8516 73.3482 53.8477 77.3884 55.3906L79.7321 56.2695C87.7232 59.2578 92.2098 62.3242 92.2098 69.1992C92.2098 76.582 85.558 80.6445 76.6518 80.6445Z" fill="#F7DF1E"/>
</g>
<defs>
<clipPath id="clip0_59_1620">
<rect width="100" height="87.5" fill="white"/>
</clipPath>
</defs>
</svg>
