<svg width="100" height="100" viewBox="0 0 100 100" fill="none" xmlns="http://www.w3.org/2000/svg">
<rect width="100" height="100" fill="white"/>
<path d="M92.8571 6.25H7.12054C3.19196 6.25 0 9.08203 0 12.5586V87.4414C0 90.918 3.19196 93.75 7.12054 93.75H92.8571C96.7857 93.75 100 90.918 100 87.4414V12.5586C100 9.08203 96.7857 6.25 92.8571 6.25ZM30.2232 81.25H15.4018V39.4922H30.2455V81.25H30.2232ZM22.8125 33.7891C18.058 33.7891 14.2188 30.4102 14.2188 26.2695C14.2188 22.1289 18.058 18.75 22.8125 18.75C27.5446 18.75 31.4062 22.1289 31.4062 26.2695C31.4062 30.4297 27.567 33.7891 22.8125 33.7891ZM85.7812 81.25H70.9598V60.9375C70.9598 56.0938 70.8482 49.8633 63.2589 49.8633C55.5357 49.8633 54.3527 55.1367 54.3527 60.5859V81.25H39.5312V39.4922H53.75V45.1953H53.9509C55.9375 41.9141 60.7812 38.457 67.9911 38.457C82.9911 38.457 85.7812 47.1094 85.7812 58.3594V81.25Z" fill="#0E76A8"/>
</svg>
