<svg width="100" height="100" viewBox="0 0 100 100" fill="none" xmlns="http://www.w3.org/2000/svg">
<path d="M9.375 16.25C4.19922 16.25 0 20.4492 0 25.625C0 28.5742 1.38672 31.3477 3.75 33.125L46.25 65C48.4766 66.6602 51.5234 66.6602 53.75 65L96.25 33.125C98.6133 31.3477 100 28.5742 100 25.625C100 20.4492 95.8008 16.25 90.625 16.25H9.375ZM0 38.125V78.75C0 85.6445 5.60547 91.25 12.5 91.25H87.5C94.3945 91.25 100 85.6445 100 78.75V38.125L57.5 70C53.0469 73.3398 46.9531 73.3398 42.5 70L0 38.125Z" fill="#E56721"/>
</svg>
