<svg width="100" height="100" viewBox="0 0 100 100" fill="none" xmlns="http://www.w3.org/2000/svg">
<g clip-path="url(#clip0_59_1621)">
<path d="M47.1603 70.882C47.0666 71.0968 47.1134 70.9992 47.1603 70.882V70.882ZM86.0822 53.8898C82.9396 53.8888 79.8389 54.7909 77.0197 56.5265C76.0978 54.2023 75.1447 52.171 74.9884 50.6476C74.8009 48.8703 74.5978 47.8156 74.8166 45.7062C75.0353 43.5968 76.0197 40.6085 76.0041 40.3937C75.9884 40.1789 75.7853 39.1046 73.7697 39.0851C71.7541 39.0656 70.0197 39.5734 69.8166 40.2375C69.4605 41.451 69.1836 42.6986 68.9884 43.9679C68.6291 46.2531 64.9572 54.4171 62.8791 58.6749C62.1916 57.0148 61.6134 55.5499 61.4884 54.3781C61.3009 52.6007 61.0978 51.546 61.3166 49.4367C61.5353 47.3273 62.5197 44.339 62.5041 44.1242C62.4884 43.9093 62.2853 42.8351 60.2697 42.8156C58.2541 42.796 56.5197 43.3039 56.3166 43.9679C56.1134 44.632 55.8947 46.1945 55.4884 47.6984C55.0822 49.2023 50.1916 62.796 48.9103 66.3312C48.2541 68.1281 47.6916 69.5734 47.2853 70.5499C47.2228 70.7062 47.1759 70.8039 47.1447 70.882C47.1916 70.7843 47.2228 70.6867 47.2228 70.7257C46.8791 71.5656 46.6759 72.0343 46.6759 72.0343V72.0539C46.4103 72.6789 46.1134 73.2453 45.9728 73.2453C45.8791 73.2453 45.6759 71.6046 46.0197 69.3585C46.7541 64.632 48.4884 57.2882 48.4728 57.0343C48.4572 56.8976 48.8009 55.6281 47.3322 54.9445C45.9103 54.2999 45.3947 55.3742 45.2697 55.3742C45.1447 55.3742 45.0509 55.7648 45.0509 55.7648C45.0509 55.7648 46.6291 47.4835 42.0197 47.4835C39.1447 47.4835 35.1447 51.4289 33.1759 55.0031C31.9416 55.8429 29.2697 57.6593 26.4572 59.5929C25.3791 60.3351 24.2697 61.0968 23.2228 61.8195C23.1447 61.7218 23.0822 61.6242 23.0041 61.5265C17.4103 54.0656 7.08219 48.7921 7.51969 38.7726C7.67594 35.1203 8.69156 25.5304 27.3791 13.8898C42.6916 4.35855 54.9416 6.97573 57.0353 12.796C60.0666 21.0968 50.4884 36.546 34.5822 38.7726C28.5197 39.6125 25.3322 36.6828 24.5353 35.589C23.7072 34.4367 23.5822 34.3781 23.2697 34.5929C22.7541 34.9445 23.0822 35.9601 23.2697 36.5656C23.7384 38.1085 25.6916 40.8429 29.0197 42.2101C31.9416 43.4015 39.0509 44.0656 47.6447 39.9054C57.3009 35.257 64.8166 22.3078 62.6134 11.4679C60.3947 0.452296 45.7853 -3.16098 31.9728 2.97183C23.7384 6.62417 14.8322 12.3664 8.42594 19.8468C0.816562 28.7531 -0.402189 36.507 0.0978112 39.7492C1.87906 51.2531 14.5666 58.7531 19.6447 64.2999C19.3947 64.4757 19.1603 64.632 18.9416 64.7882C16.3947 66.3703 6.72281 72.6984 4.30094 79.3781C1.56656 86.9562 4.75406 92.3859 6.84781 93.1281C13.3791 95.3937 20.0666 91.3117 23.6603 84.6124C27.2541 77.9132 26.8166 69.1632 25.1603 65.1789C25.1447 65.1203 25.1134 65.0812 25.0978 65.0226C25.7541 64.5343 26.4259 64.046 27.0978 63.5578C28.3947 62.6007 29.6603 61.7218 30.7697 60.9601C30.1447 63.0695 29.6916 65.6085 29.4572 69.2804C29.1759 73.5773 30.5978 79.1437 32.4416 81.3312C33.2541 82.2882 34.2384 82.3078 34.8478 82.3078C37.0041 82.3078 37.9728 80.0812 39.0509 77.4249C40.3791 74.1828 41.5509 70.4132 41.5509 70.4132C41.5509 70.4132 40.0822 80.6085 44.0978 80.6085C45.5666 80.6085 47.0353 78.2453 47.6916 77.0343V77.0539C47.6916 77.0539 47.7228 76.9757 47.8009 76.8195C47.9572 76.5265 48.0353 76.3507 48.0353 76.3507V76.2921C48.6291 75.0226 49.9259 72.1124 51.8791 67.3078C54.4103 61.0968 56.8322 53.3429 56.8322 53.3429C57.066 55.0474 57.3897 56.7308 57.8009 58.382C58.2384 60.2374 59.1603 62.2687 59.8947 64.2414C59.3009 65.257 58.9416 65.8429 58.9416 65.8429C58.9426 65.858 58.9481 65.872 58.9572 65.882C58.4884 66.6632 57.9572 67.5031 57.4103 68.3234C55.4103 71.2921 53.0353 74.6906 52.7228 75.6671C52.3478 76.8195 52.4416 77.6789 53.1603 78.3429C53.6916 78.8507 54.6291 78.9289 55.6134 78.8312C57.4103 78.6749 58.6759 78.1281 59.2853 77.7765C60.4093 77.2731 61.4716 76.5763 62.4416 75.7062C64.3947 73.9093 65.5822 71.3312 65.4728 67.9328C65.4103 66.0578 64.9259 64.1828 64.3322 62.425C64.5041 62.1125 64.6916 61.7804 64.8634 61.4484C67.9416 55.8039 70.3322 49.6125 70.3322 49.6125C70.5661 51.317 70.8897 53.0003 71.3009 54.6515C71.6759 56.2335 72.4103 57.9718 73.0822 59.671C70.1759 62.6203 68.3791 66.0382 67.7541 68.2843C66.5978 72.4445 67.5041 74.3195 69.2072 74.7492C69.9728 74.9445 71.0666 74.4953 71.8791 74.0656C73.0862 73.5632 74.2245 72.8321 75.2541 71.8976C77.2072 70.1007 79.0978 67.5812 78.9728 64.1632C78.9259 62.6203 78.5822 61.0773 78.1291 59.5929C80.5822 58.3039 83.7697 57.6007 87.8322 58.1867C96.5353 59.4562 98.2384 66.2531 97.9103 69.0851C97.5822 71.9171 95.7541 73.4992 95.1447 73.9679C94.5353 74.4367 94.3478 74.6124 94.3947 74.964C94.4728 75.4718 94.7541 75.4523 95.2697 75.3351C95.9884 75.1789 99.8322 73.0304 100.004 67.7765C100.254 61.1359 95.1447 53.8312 86.0978 53.8898H86.0822ZM19.0197 82.1515C16.1447 86.0773 12.1134 87.5617 10.3791 86.3117C8.53531 84.964 9.26969 79.1828 12.8166 75.0031C14.9728 72.464 17.7541 70.1203 19.5978 68.6749C20.0197 68.3624 20.6291 67.8937 21.3791 67.3273C21.5041 67.2296 21.5666 67.1906 21.5666 67.1906C21.7072 67.0734 21.8634 66.9757 22.0197 66.8585C23.3166 72.796 22.0666 78.0304 19.0353 82.1515H19.0197ZM40.0197 64.2999C39.0197 67.3664 36.9103 75.1789 35.6291 74.7687C34.5353 74.4171 33.8634 68.4601 35.4103 62.6007C36.1916 59.6515 37.8478 56.1359 38.8322 54.7687C40.4103 52.5617 42.1447 51.8585 42.5509 52.7374C43.0978 53.8898 40.6447 62.3859 40.0197 64.2999ZM57.3634 74.6515C56.9416 74.9249 56.5509 75.1007 56.3634 74.964C56.2228 74.8664 56.5353 74.4953 56.5353 74.4953C56.5353 74.4953 58.7072 71.5851 59.5666 70.257C60.0666 69.4757 60.6447 68.5578 61.2697 67.5421C61.2697 67.6398 61.2853 67.7374 61.2853 67.8546C61.2697 71.3507 58.5822 73.714 57.3634 74.6515ZM70.7384 70.8429C70.4259 70.5695 70.4728 69.6515 71.5197 66.7999C71.9259 65.6867 72.8634 63.8117 74.4884 62.0148C74.6725 62.695 74.7726 63.4063 74.7853 64.1242C74.7697 68.5187 72.2541 70.1593 70.7384 70.8429Z" fill="#CF649A"/>
</g>
<defs>
<clipPath id="clip0_59_1621">
<rect width="100" height="100" fill="white"/>
</clipPath>
</defs>
</svg>
