<svg width="100" height="100" viewBox="0 0 100 100" fill="none" xmlns="http://www.w3.org/2000/svg">
<rect width="100" height="100" fill="white"/>
<path d="M20.558 49.7266C20.558 54.5898 22.1205 59.3359 25.067 63.418L25.7589 64.3945L22.7902 73.8867L33.9286 71.3281L35 71.8945C39.5089 74.2383 44.6875 75.4883 49.9777 75.4883H50C66.2054 75.4883 79.7545 63.9453 79.7545 49.7461C79.7545 42.8711 76.3616 36.4062 70.8036 31.543C65.2232 26.6602 57.8571 23.9844 50 23.9844C33.7723 23.9844 20.5804 35.5273 20.558 49.7266ZM61.3393 64.4531C58.5268 64.8242 56.3393 64.6289 50.7366 62.5195C42.5223 59.4141 36.942 52.4609 35.8036 51.0547C35.7143 50.9375 35.6473 50.8789 35.625 50.8398C35.1786 50.332 32.0089 46.6406 32.0089 42.832C32.0089 39.2383 34.0179 37.3828 34.9554 36.5234C35.0223 36.4648 35.067 36.4258 35.1116 36.3672C35.9152 35.5859 36.875 35.3906 37.4777 35.3906C38.058 35.3906 38.6607 35.3906 39.1741 35.4102C39.2411 35.4102 39.2857 35.4102 39.3527 35.4102C39.8661 35.4102 40.5134 35.4102 41.1607 36.7383C41.4286 37.3047 41.8304 38.1641 42.2545 39.043C42.9911 40.6055 43.75 42.2266 43.8839 42.4805C44.1071 42.8711 44.2634 43.3203 43.9509 43.8281C43.192 45.1562 42.4107 45.8594 41.875 46.3672C41.183 46.9922 40.8705 47.2852 41.3616 48.0469C44.7768 53.1836 48.192 54.9609 53.3929 57.2461C54.2857 57.6367 54.7991 57.5781 55.3125 57.0508C55.8259 56.543 57.5223 54.7852 58.1027 54.0234C58.683 53.2422 59.2857 53.3789 60.0893 53.6328C60.8929 53.8867 65.2455 55.7617 66.1384 56.1523C66.317 56.2305 66.4732 56.2891 66.6071 56.3477C67.2321 56.6211 67.6562 56.7969 67.8348 57.0508C68.0357 57.4219 68.0357 58.9844 67.2991 60.7813C66.5625 62.5977 63.0357 64.2383 61.3393 64.4531ZM100 18.75C100 11.8555 93.5938 6.25 85.7143 6.25H14.2857C6.40625 6.25 0 11.8555 0 18.75V81.25C0 88.1445 6.40625 93.75 14.2857 93.75H85.7143C93.5938 93.75 100 88.1445 100 81.25V18.75ZM33.058 76.9336L14.2857 81.25L19.308 65.1953C16.2054 60.5078 14.5759 55.1758 14.5759 49.707C14.5982 32.6367 30.4687 18.75 49.9777 18.75C59.442 18.75 68.3259 21.9727 75.0223 27.832C81.6964 33.6914 85.7143 41.4648 85.7143 49.7461C85.7143 66.8164 69.4866 80.7031 49.9777 80.7031C44.0402 80.7031 38.2143 79.3945 33.058 76.9336Z" fill="#03C100"/>
</svg>
